
        <svg xmlns="http://www.w3.org/2000/svg" xmlns:xlink="http://www.w3.org/1999/xlink" version="1.1" width="3191.968776643145" height="3191.998121903347" viewBox="0 0 3191.968776643145 3191.998121903347">
			
			<g transform="scale(9.599906095167352) translate(10, 10)">
				<defs id="SvgjsDefs9216"><linearGradient id="SvgjsLinearGradient9225"><stop id="SvgjsStop9226" stop-color="#00ddff" offset="0"/><stop id="SvgjsStop9227" stop-color="#ff00d4" offset="1"/></linearGradient><linearGradient id="SvgjsLinearGradient9228"><stop id="SvgjsStop9229" stop-color="#00ddff" offset="0"/><stop id="SvgjsStop9230" stop-color="#ff00d4" offset="1"/></linearGradient><linearGradient id="SvgjsLinearGradient9231"><stop id="SvgjsStop9232" stop-color="#00ddff" offset="0"/><stop id="SvgjsStop9233" stop-color="#ff00d4" offset="1"/></linearGradient><linearGradient id="SvgjsLinearGradient9234"><stop id="SvgjsStop9235" stop-color="#00ddff" offset="0"/><stop id="SvgjsStop9236" stop-color="#ff00d4" offset="1"/></linearGradient></defs><g id="SvgjsG9217" featureKey="rootContainer" transform="matrix(1.5292539637583238,0,0,1.5292539637583238,0,0)" fill="#fff"><path xmlns="http://www.w3.org/2000/svg" d="M102.174 199.588c53.8 0 97.413-43.613 97.413-97.413S155.974 4.762 102.174 4.762 4.761 48.375 4.761 102.175s43.614 97.413 97.413 97.413zm0-189.826c50.957 0 92.413 41.457 92.413 92.413s-41.456 92.413-92.413 92.413c-50.957 0-92.413-41.457-92.413-92.413S51.218 9.762 102.174 9.762z"/><path xmlns="http://www.w3.org/2000/svg" d="M102.174 191.585c49.38 0 89.41-40.03 89.41-89.41s-40.03-89.41-89.41-89.41c-49.38 0-89.41 40.03-89.41 89.41s40.03 89.41 89.41 89.41zm0-176.82c48.198 0 87.41 39.212 87.41 87.41s-39.212 87.41-87.41 87.41c-48.198 0-87.41-39.212-87.41-87.41s39.212-87.41 87.41-87.41z"/><path xmlns="http://www.w3.org/2000/svg" d="M102.174 204.35c56.339 0 102.174-45.835 102.174-102.175S158.513 0 102.174 0C45.835 0 0 45.835 0 102.175S45.835 204.35 102.174 204.35zm0-202.35c55.236 0 100.174 44.938 100.174 100.175S157.411 202.35 102.174 202.35C46.938 202.35 2 157.411 2 102.175S46.938 2 102.174 2z"/></g><g id="SvgjsG9218" featureKey="symbolFeature-0" transform="matrix(0.8888888888888888,0,0,0.8888888888888888,111.55555555555556,71.55555555555556)" fill="#fff"><path xmlns="http://www.w3.org/2000/svg" d="M40.9,36.1l14.6,31.5c0-1.5-0.1-4-0.1-7.1l-3.2-27.9C45.2,32.7,40.9,36.1,40.9,36.1z M59.2,32.5c-1.7-0.1-3.3-0.1-4.7,0  l1.6,16C56.6,43.3,57.6,37.7,59.2,32.5z M23.3,59.7c2.6,0.8,5.2,1.7,8.1,2.8c0,0,8.4,4.3,14.9,7L29.2,48  C26.7,51.7,24.8,55.8,23.3,59.7z M12.3,74.6c0.5-2.7,1.1-5.5,2-8.1c-2.2-0.4-4.4-0.7-6.5-0.9C8.9,68.8,10.5,71.8,12.3,74.6z   M51.9,71.8c0,0,2.1,0.7,3.1-0.4L38.7,37.7c-2.8,2.1-5.3,4.5-7.5,7.3l19.7,26.4C51.3,71.6,51.6,71.7,51.9,71.8z M93.8,39.7  c-1.4-5.9-4-11.4-7.4-16.1c2,5.1,4.1,10.7,5.6,14.6C92.6,38.6,93.3,39.2,93.8,39.7z M91.5,45.8c-4.2-3.3-8.2-5.9-12.1-7.9L64,42.5  l-3.1,7.8c-0.5,4.9-0.9,11.1-0.5,16.2c0,0,0.9,9.9-2.7,11.1c0,0-3.9,3.8-13.8-0.9c0,0-10.3-5.4-23.1-8.8c-2,7.6-2.5,13.4-2.5,13.9  C26.3,90,37.6,95,50,95c24.8,0,45-20.2,45-45c0-0.5,0-1,0-1.5C93.2,48.8,91.5,45.8,91.5,45.8z M61.3,27.1c0.9-2.1,2.1-4.1,3.3-5.9  c0,0,3.4-5.3,8.5-9.8C66.4,7.4,58.4,5,50,5C25.1,5,5,25.2,5,50c0,2.4,0.2,4.6,0.5,6.8c3.5,0.1,7.4,0.5,11.7,1.3  c2.6-6.3,5-10.6,5-10.6S34.2,25.3,61.3,27.1z M62,40l0.9-0.3l2.6-6.4c-0.6-0.1-1-0.2-1.6-0.3C63.1,35.1,62.4,37.5,62,40z M67.5,33.7  l-2.2,5.4l10.5-2.7C73,35.2,70.2,34.3,67.5,33.7z M70.7,22.4c-1.4,1.6-2.8,3.4-4.1,5.4c5,0.9,9.3,2.1,13,3.5L70.7,22.4z M87.7,35.2  l-6.4-17.5c-0.9-0.9-1.8-1.7-2.7-2.5c-2,1.4-4.1,3.1-6.2,5.2L83.5,33C85.1,33.8,86.6,34.6,87.7,35.2z"/></g><g id="SvgjsG9219" featureKey="nameFeature-0" transform="matrix(1.4040999478518787,0,0,1.4040999478518787,54.3150801630068,159.15080196483152)" fill="#fff"><path d="M1.2 40 l0 -4.48 l0.84 -0.56 l0 -17.92 l-0.84 -0.56 l0 -4.48 l6.72 0 l0 4.48 l-0.84 0.56 l0 6.44 l6.16 0 l0 -6.44 l-0.84 -0.56 l0 -4.48 l6.72 0 l0 4.48 l-0.84 0.56 l0 17.92 l0.84 0.56 l0 4.48 l-6.72 0 l0 -4.48 l0.84 -0.56 l0 -6.44 l-6.16 0 l0 6.44 l0.84 0.56 l0 4.48 l-6.72 0 z M21.52 40 l0 -4.48 l0.84 -0.56 l0 -17.92 l-0.84 -0.56 l0 -4.48 l14.56 0 l0 5.88 l-4.48 0 l-0.56 -0.84 l-3.64 0 l0 6.44 l6.44 0 l0 5.04 l-6.44 0 l0 6.44 l3.64 0 l0.56 -0.84 l4.48 0 l0 5.88 l-14.56 0 z M38.480000000000004 40 l0 -4.48 l0.84 -0.56 l0 -17.92 l-0.84 -0.56 l0 -4.48 l6.72 0 l0 4.48 l-0.84 0.56 l0 17.92 l2.8 0 l0.56 -0.84 l4.48 0 l0 5.88 l-13.72 0 z M54.60000000000001 40 l0 -4.48 l0.84 -0.56 l0 -17.92 l-0.84 -0.56 l0 -4.48 l6.72 0 l0 4.48 l-0.84 0.56 l0 17.92 l0.84 0.56 l0 4.48 l-6.72 0 z M63.72000000000001 40 l0 -4.48 l1.16 -0.76 l3.16 -8.76 l-3.16 -8.76 l-1.16 -0.76 l0 -4.48 l4.6 0 l3.52 9.68 l3.52 -9.68 l4.6 0 l0 4.48 l-1.16 0.76 l-3.16 8.76 l3.16 8.76 l1.16 0.76 l0 4.48 l-4.6 0 l-3.52 -9.68 l-3.52 9.68 l-4.6 0 z M93.28000000000002 40 l-3.72 -3.72 l0 -20.56 l3.72 -3.72 l8.8 0 l3.72 3.72 l0 5.24 l-5.04 0 l0 -3.16 l-0.76 -0.76 l-4.64 0 l-0.76 0.76 l0 16.4 l0.76 0.76 l4.64 0 l0.76 -0.76 l0 -5.68 l-1.68 0 l-0.84 -0.56 l0 -4.48 l7.56 0 l0 12.8 l-3.72 3.72 l-8.8 0 z M108.20000000000002 40 l0 -4.48 l0.84 -0.56 l0 -17.92 l-0.84 -0.56 l0 -4.48 l12.8 0 l3.72 3.72 l0 10.76 l-3.72 3.72 l-6.92 0 l0 4.76 l0.84 0.56 l0 4.48 l-6.72 0 z M114.08000000000001 25.16 l4.84 0 l0.76 -0.76 l0 -6.6 l-0.76 -0.76 l-4.84 0 l0 8.12 z M130.84 40 l-3.72 -3.72 l0 -20.56 l3.72 -3.72 l9.08 0 l3.72 3.72 l0 20.56 l-3.72 3.72 l-9.08 0 z M132.92000000000002 34.96 l4.92 0 l0.76 -0.76 l0 -16.4 l-0.76 -0.76 l-4.92 0 l-0.76 0.76 l0 16.4 z"/></g><g id="SvgjsG9220" featureKey="sloganFeature-0" transform="matrix(0.4965243447395436,0,0,0.4965243447395436,75.38430974859743,227.5273094640104)" fill="#fff"><path d="M2.4 20 c-0.64 0 -1.16 -0.52 -1.16 -1.16 l0 -12.7 c0 -0.64 0.52 -1.16 1.16 -1.16 l6.42 0 c1.88 0 3.4 1.52 3.4 3.4 l0 8.22 c0 1.86 -1.52 3.4 -3.4 3.4 l-6.42 0 z M3.5 18.28 l5.32 0 c0.84 0 1.52 -0.68 1.52 -1.52 l0 -8.54 c0 -0.84 -0.68 -1.52 -1.52 -1.52 l-5.32 0 c-0.22 0 -0.38 0.16 -0.38 0.38 l0 10.82 c0 0.2 0.16 0.38 0.38 0.38 z M15.280000000000001 20 c-0.14 0 -0.26 -0.12 -0.26 -0.26 l0 -14.76 l1.62 0 c0.14 0 0.26 0.12 0.26 0.26 l0 14.76 l-1.62 0 z M23.020000000000003 6.699999999999999 c-0.84 0 -1.52 0.68 -1.52 1.52 l0 3.8 c0.2 -0.24 0.56 -0.4 0.98 -0.4 l6.58 0 l0 1.46 c0 0.14 -0.12 0.26 -0.26 0.26 l-7.3 0 l0 3.42 c0 0.84 0.68 1.52 1.52 1.52 l6.48 0 c0.14 0 0.26 0.12 0.26 0.26 l0 1.46 l-6.74 0 c-1.88 0 -3.4 -1.52 -3.4 -3.4 l0 -8.22 c0 -1.88 1.52 -3.4 3.4 -3.4 l6.74 0 l0 1.46 c0 0.14 -0.12 0.26 -0.26 0.26 l-6.48 0 z M40.38 20 c-0.64 0 -1.16 -0.52 -1.16 -1.16 l0 -12.7 c0 -0.64 0.52 -1.16 1.16 -1.16 l6.42 0 c1.88 0 3.4 1.52 3.4 3.4 l0 8.22 c0 1.86 -1.52 3.4 -3.4 3.4 l-6.42 0 z M41.480000000000004 18.28 l5.32 0 c0.84 0 1.52 -0.68 1.52 -1.52 l0 -8.54 c0 -0.84 -0.68 -1.52 -1.52 -1.52 l-5.32 0 c-0.22 0 -0.38 0.16 -0.38 0.38 l0 10.82 c0 0.2 0.16 0.38 0.38 0.38 z M60.900000000000006 13.7 l1.82 3.58 c-0.2 -1.56 -0.2 -2.82 -0.3 -4.24 l0 -7.8 c0 -0.14 0.12 -0.26 0.26 -0.26 l1.62 0 l0 15.02 l-1.74 0 c-0.14 0 -0.32 -0.12 -0.38 -0.24 l-6.84 -12.74 c-0.1 -0.18 -0.34 -0.32 -0.54 -0.32 l-0.34 0 l0 13.04 c0 0.14 -0.12 0.26 -0.26 0.26 l-1.62 0 l0 -14.76 c0 -0.14 0.12 -0.26 0.26 -0.26 l2.28 0 c0.64 0 1.4 0.46 1.7 1.02 z M74.86000000000001 5.119999999999999 l5.24 14.88 l-1.64 0 c-0.18 0 -0.32 -0.12 -0.36 -0.26 l-1.34 -3.86 l-7.64 0 l-1.34 3.86 c-0.04 0.14 -0.2 0.26 -0.36 0.26 l-1.64 0 l4.88 -13.9 c0.24 -0.66 0.86 -1.12 1.58 -1.12 l2.38 0 c0.1 0 0.2 0.06 0.24 0.14 z M69.72000000000001 14.16 l6.44 0 l-2.6 -7.46 l-0.98 0 c-0.16 0 -0.3 0.1 -0.36 0.26 z M90.44000000000001 20 c-0.64 0 -1.16 -0.52 -1.16 -1.16 l0 -12.7 c0 -0.64 0.52 -1.16 1.16 -1.16 l6.42 0 c1.88 0 3.4 1.52 3.4 3.4 l0 8.22 c0 1.86 -1.52 3.4 -3.4 3.4 l-6.42 0 z M91.54 18.28 l5.32 0 c0.84 0 1.52 -0.68 1.52 -1.52 l0 -8.54 c0 -0.84 -0.68 -1.52 -1.52 -1.52 l-5.32 0 c-0.22 0 -0.38 0.16 -0.38 0.38 l0 10.82 c0 0.2 0.16 0.38 0.38 0.38 z M106.04 6.699999999999999 c-0.84 0 -1.52 0.68 -1.52 1.52 l0 3.8 c0.2 -0.24 0.56 -0.4 0.98 -0.4 l6.58 0 l0 1.46 c0 0.14 -0.12 0.26 -0.26 0.26 l-7.3 0 l0 3.42 c0 0.84 0.68 1.52 1.52 1.52 l6.48 0 c0.14 0 0.26 0.12 0.26 0.26 l0 1.46 l-6.74 0 c-1.88 0 -3.4 -1.52 -3.4 -3.4 l0 -8.22 c0 -1.88 1.52 -3.4 3.4 -3.4 l6.74 0 l0 1.46 c0 0.14 -0.12 0.26 -0.26 0.26 l-6.48 0 z M115.30000000000001 20 c-0.14 0 -0.26 -0.12 -0.26 -0.26 l0 -14.76 l1.62 0 c0.14 0 0.26 0.12 0.26 0.26 l0 14.76 l-1.62 0 z M127.96000000000001 13.7 l1.82 3.58 c-0.2 -1.56 -0.2 -2.82 -0.3 -4.24 l0 -7.8 c0 -0.14 0.12 -0.26 0.26 -0.26 l1.62 0 l0 15.02 l-1.74 0 c-0.14 0 -0.32 -0.12 -0.38 -0.24 l-6.84 -12.74 c-0.1 -0.18 -0.34 -0.32 -0.54 -0.32 l-0.34 0 l0 13.04 c0 0.14 -0.12 0.26 -0.26 0.26 l-1.62 0 l0 -14.76 c0 -0.14 0.12 -0.26 0.26 -0.26 l2.28 0 c0.64 0 1.4 0.46 1.7 1.02 z M137.18 6.699999999999999 c-0.84 0 -1.52 0.68 -1.52 1.52 l0 3.8 c0.2 -0.24 0.56 -0.4 0.98 -0.4 l6.58 0 l0 1.46 c0 0.14 -0.12 0.26 -0.26 0.26 l-7.3 0 l0 3.42 c0 0.84 0.68 1.52 1.52 1.52 l6.48 0 c0.14 0 0.26 0.12 0.26 0.26 l0 1.46 l-6.74 0 c-1.88 0 -3.4 -1.52 -3.4 -3.4 l0 -8.22 c0 -1.88 1.52 -3.4 3.4 -3.4 l6.74 0 l0 1.46 c0 0.14 -0.12 0.26 -0.26 0.26 l-6.48 0 z M145.66 18.28 l7.4 0 c0.84 0 1.48 -0.68 1.48 -1.52 l0 -1.82 c0 -0.2 -0.16 -0.42 -0.36 -0.48 l-7.68 -2.56 c-0.6 -0.2 -1.1 -0.88 -1.1 -1.52 l0 -2.38 c0 -1.88 1.52 -3.02 3.4 -3.02 l7.12 0 l0 1.46 c0 0.14 -0.1 0.26 -0.26 0.26 l-6.86 0 c-0.84 0 -1.54 0.54 -1.54 1.38 l0 1.94 c0 0.22 0.16 0.44 0.36 0.5 l7.68 2.54 c0.6 0.2 1.04 0.9 1.04 1.54 l0 2.14 c0 1.88 -1.42 3.26 -3.28 3.26 l-7.66 0 l0 -1.46 c0 -0.16 0.12 -0.26 0.26 -0.26 z M169.48000000000002 20.08 c-1.88 0 -3.4 -1.52 -3.4 -3.4 l0 -11.7 l1.62 0 c0.14 0 0.26 0.12 0.26 0.26 l0 11.6 c0 0.84 0.68 1.52 1.52 1.52 l4.52 0 c0.84 0 1.52 -0.68 1.52 -1.52 l0 -11.6 c0 -0.14 0.12 -0.26 0.26 -0.26 l1.62 0 l0 11.7 c0 1.88 -1.54 3.4 -3.4 3.4 l-4.52 0 z M188.16000000000003 13.7 l1.82 3.58 c-0.2 -1.56 -0.2 -2.82 -0.3 -4.24 l0 -7.8 c0 -0.14 0.12 -0.26 0.26 -0.26 l1.62 0 l0 15.02 l-1.74 0 c-0.14 0 -0.32 -0.12 -0.38 -0.24 l-6.84 -12.74 c-0.1 -0.18 -0.34 -0.32 -0.54 -0.32 l-0.34 0 l0 13.04 c0 0.14 -0.12 0.26 -0.26 0.26 l-1.62 0 l0 -14.76 c0 -0.14 0.12 -0.26 0.26 -0.26 l2.28 0 c0.64 0 1.4 0.46 1.7 1.02 z M193.40000000000003 4.98 l10.64 0 l0 1.46 c0 0.14 -0.12 0.26 -0.26 0.26 l-4.28 0 l0 13.04 c0 0.14 -0.1 0.26 -0.26 0.26 l-1.62 0 l0 -13.3 l-4.48 0 l0 -1.46 c0 -0.14 0.12 -0.26 0.26 -0.26 z M208.98000000000002 6.699999999999999 c-0.84 0 -1.52 0.68 -1.52 1.52 l0 3.8 c0.2 -0.24 0.56 -0.4 0.98 -0.4 l6.58 0 l0 1.46 c0 0.14 -0.12 0.26 -0.26 0.26 l-7.3 0 l0 3.42 c0 0.84 0.68 1.52 1.52 1.52 l6.48 0 c0.14 0 0.26 0.12 0.26 0.26 l0 1.46 l-6.74 0 c-1.88 0 -3.4 -1.52 -3.4 -3.4 l0 -8.22 c0 -1.88 1.52 -3.4 3.4 -3.4 l6.74 0 l0 1.46 c0 0.14 -0.12 0.26 -0.26 0.26 l-6.48 0 z M219.48000000000002 12.8 l-0.04 0 l0 6.94 c0 0.14 -0.12 0.26 -0.26 0.26 l-1.62 0 l0 -13.86 c0 -0.64 0.52 -1.16 1.16 -1.16 l6.28 0 c1.88 0 3.4 1.18 3.4 3.22 l0 1.94 c0 1.76 -1.26 2.72 -2.72 3.1 l3.2 6.76 l-1.74 0 c-0.14 0 -0.3 -0.12 -0.36 -0.24 l-3.04 -6.42 l-2.56 0 l-0.58 0 c-0.56 0 -0.98 -0.16 -1.12 -0.54 z M219.82000000000002 11.62 l5.18 0 c0.84 0 1.52 -0.68 1.52 -1.52 l0 -1.88 c0 -0.84 -0.68 -1.52 -1.52 -1.52 l-5.18 0 c-0.22 0 -0.38 0.18 -0.38 0.38 l0 4.16 c0 0.22 0.18 0.38 0.38 0.38 z M238.8 13.7 l1.82 3.58 c-0.2 -1.56 -0.2 -2.82 -0.3 -4.24 l0 -7.8 c0 -0.14 0.12 -0.26 0.26 -0.26 l1.62 0 l0 15.02 l-1.74 0 c-0.14 0 -0.32 -0.12 -0.38 -0.24 l-6.84 -12.74 c-0.1 -0.18 -0.34 -0.32 -0.54 -0.32 l-0.34 0 l0 13.04 c0 0.14 -0.12 0.26 -0.26 0.26 l-1.62 0 l0 -14.76 c0 -0.14 0.12 -0.26 0.26 -0.26 l2.28 0 c0.64 0 1.4 0.46 1.7 1.02 z M248.02 6.699999999999999 c-0.84 0 -1.52 0.68 -1.52 1.52 l0 3.8 c0.2 -0.24 0.56 -0.4 0.98 -0.4 l6.58 0 l0 1.46 c0 0.14 -0.12 0.26 -0.26 0.26 l-7.3 0 l0 3.42 c0 0.84 0.68 1.52 1.52 1.52 l6.48 0 c0.14 0 0.26 0.12 0.26 0.26 l0 1.46 l-6.74 0 c-1.88 0 -3.4 -1.52 -3.4 -3.4 l0 -8.22 c0 -1.88 1.52 -3.4 3.4 -3.4 l6.74 0 l0 1.46 c0 0.14 -0.12 0.26 -0.26 0.26 l-6.48 0 z M265.92 4.98 l1.62 0 l0 15.02 l-1.62 0 c-0.14 0 -0.26 -0.12 -0.26 -0.26 l0 -6.4 l-7.18 0 l0 6.4 c0 0.14 -0.12 0.26 -0.26 0.26 l-1.62 0 l0 -15.02 l1.62 0 c0.14 0 0.26 0.12 0.26 0.26 l0 6.38 l7.18 0 l0 -6.38 c0 -0.14 0.12 -0.26 0.26 -0.26 z M271.62 5 c0.2 0 0.44 0.14 0.54 0.32 l4.98 9.12 l5 -9.12 c0.1 -0.18 0.34 -0.32 0.54 -0.32 l1.4 0 c0.14 0 0.26 0.1 0.26 0.26 l0 14.72 l-1.62 0 c-0.14 0 -0.26 -0.12 -0.26 -0.26 l0 -11.68 l-4.18 7.94 c-0.08 0.14 -0.24 0.24 -0.4 0.24 l-1.46 0 c-0.16 0 -0.32 -0.1 -0.4 -0.24 l-4.18 -7.94 l0 11.68 c0 0.14 -0.12 0.26 -0.26 0.26 l-1.62 0 l0 -14.72 c0 -0.16 0.12 -0.26 0.26 -0.26 l1.4 0 z M290.18 6.699999999999999 c-0.84 0 -1.52 0.68 -1.52 1.52 l0 3.8 c0.2 -0.24 0.56 -0.4 0.98 -0.4 l6.58 0 l0 1.46 c0 0.14 -0.12 0.26 -0.26 0.26 l-7.3 0 l0 3.42 c0 0.84 0.68 1.52 1.52 1.52 l6.48 0 c0.14 0 0.26 0.12 0.26 0.26 l0 1.46 l-6.74 0 c-1.88 0 -3.4 -1.52 -3.4 -3.4 l0 -8.22 c0 -1.88 1.52 -3.4 3.4 -3.4 l6.74 0 l0 1.46 c0 0.14 -0.12 0.26 -0.26 0.26 l-6.48 0 z M307.08 13.7 l1.82 3.58 c-0.2 -1.56 -0.2 -2.82 -0.3 -4.24 l0 -7.8 c0 -0.14 0.12 -0.26 0.26 -0.26 l1.62 0 l0 15.02 l-1.74 0 c-0.14 0 -0.32 -0.12 -0.38 -0.24 l-6.84 -12.74 c-0.1 -0.18 -0.34 -0.32 -0.54 -0.32 l-0.34 0 l0 13.04 c0 0.14 -0.12 0.26 -0.26 0.26 l-1.62 0 l0 -14.76 c0 -0.14 0.12 -0.26 0.26 -0.26 l2.28 0 c0.64 0 1.4 0.46 1.7 1.02 z M312.8 18.28 l7.4 0 c0.84 0 1.48 -0.68 1.48 -1.52 l0 -1.82 c0 -0.2 -0.16 -0.42 -0.36 -0.48 l-7.68 -2.56 c-0.6 -0.2 -1.1 -0.88 -1.1 -1.52 l0 -2.38 c0 -1.88 1.52 -3.02 3.4 -3.02 l7.12 0 l0 1.46 c0 0.14 -0.1 0.26 -0.26 0.26 l-6.86 0 c-0.84 0 -1.54 0.54 -1.54 1.38 l0 1.94 c0 0.22 0.16 0.44 0.36 0.5 l7.68 2.54 c0.6 0.2 1.04 0.9 1.04 1.54 l0 2.14 c0 1.88 -1.42 3.26 -3.28 3.26 l-7.66 0 l0 -1.46 c0 -0.16 0.12 -0.26 0.26 -0.26 z"/></g>
			</g>
		</svg>
	